<?xml version="1.0" encoding="UTF-8"?>
<svg xmlns="http://www.w3.org/2000/svg" width="200" height="56" viewBox="0 0 200 56" fill="none">
  <g clip-path="url(#clip0_10838_20632)">
    <path fill-rule="evenodd" clip-rule="evenodd" d="M26.5925 0H18.8526L41.7472 32.5584C40.2935 33.4835 38.6198 34.2545 36.726 34.8712C33.8861 35.775 30.5297 36.227 26.657 36.227H24.5379L0 0L37.7052 56H58.2311L41.7472 32.5584C42.4736 32.0962 43.145 31.5954 43.7614 31.0562C45.6332 29.4167 47.0209 27.4829 47.9246 25.2548C48.8282 23.0268 49.28 20.599 49.28 17.9716C49.28 15.176 48.8174 12.6642 47.8923 10.4361C46.9887 8.20808 45.6009 6.32684 43.7291 4.79243C41.8573 3.23699 39.5015 2.04939 36.6615 1.22964C33.8215 0.409878 30.4652 0 26.5925 0Z" fill="#FEB000"></path>
    <path d="M18.8526 0H0L24.5379 36.227H26.657C30.5297 36.227 33.8861 35.775 36.726 34.8712C38.6198 34.2545 40.2935 33.4835 41.7472 32.5584L18.8526 0Z" fill="#FEB000"></path>
    <path d="M0 33.6895H22.3108L0 56.0002V33.6895Z" fill="#FEB000"></path>
  </g>
  <path d="M87.6 35L83.22 27.05H81.99V35H76.86V13.94H85.47C87.13 13.94 88.54 14.23 89.7 14.81C90.88 15.39 91.76 16.19 92.34 17.21C92.92 18.21 93.21 19.33 93.21 20.57C93.21 21.97 92.81 23.22 92.01 24.32C91.23 25.42 90.07 26.2 88.53 26.66L93.39 35H87.6ZM81.99 23.42H85.17C86.11 23.42 86.81 23.19 87.27 22.73C87.75 22.27 87.99 21.62 87.99 20.78C87.99 19.98 87.75 19.35 87.27 18.89C86.81 18.43 86.11 18.2 85.17 18.2H81.99V23.42ZM112.96 18.26V35H107.83V32.72C107.31 33.46 106.6 34.06 105.7 34.52C104.82 34.96 103.84 35.18 102.76 35.18C101.48 35.18 100.35 34.9 99.3703 34.34C98.3903 33.76 97.6303 32.93 97.0903 31.85C96.5503 30.77 96.2803 29.5 96.2803 28.04V18.26H101.38V27.35C101.38 28.47 101.67 29.34 102.25 29.96C102.83 30.58 103.61 30.89 104.59 30.89C105.59 30.89 106.38 30.58 106.96 29.96C107.54 29.34 107.83 28.47 107.83 27.35V18.26H112.96ZM121.445 30.77H128.705V35H115.715V30.92L122.675 22.49H115.775V18.26H128.555V22.34L121.445 30.77ZM130.508 26.6C130.508 24.88 130.828 23.37 131.468 22.07C132.128 20.77 133.018 19.77 134.138 19.07C135.258 18.37 136.508 18.02 137.888 18.02C139.068 18.02 140.098 18.26 140.978 18.74C141.878 19.22 142.568 19.85 143.048 20.63V18.26H148.178V35H143.048V32.63C142.548 33.41 141.848 34.04 140.948 34.52C140.068 35 139.038 35.24 137.858 35.24C136.498 35.24 135.258 34.89 134.138 34.19C133.018 33.47 132.128 32.46 131.468 31.16C130.828 29.84 130.508 28.32 130.508 26.6ZM143.048 26.63C143.048 25.35 142.688 24.34 141.968 23.6C141.268 22.86 140.408 22.49 139.388 22.49C138.368 22.49 137.498 22.86 136.778 23.6C136.078 24.32 135.728 25.32 135.728 26.6C135.728 27.88 136.078 28.9 136.778 29.66C137.498 30.4 138.368 30.77 139.388 30.77C140.408 30.77 141.268 30.4 141.968 29.66C142.688 28.92 143.048 27.91 143.048 26.63Z" fill="white"></path>
  <defs>
    <clipPath id="clip0_10838_20632">
      <rect width="59" height="56" fill="white"></rect>
    </clipPath>
  </defs>
</svg>
