<?xml version="1.0" encoding="UTF-8"?>
<svg xmlns="http://www.w3.org/2000/svg" width="151" height="56" viewBox="0 0 151 56" fill="none">
  <g clip-path="url(#clip0_10808_18984)">
    <path fill-rule="evenodd" clip-rule="evenodd" d="M26.5925 0H18.8526L41.7472 32.5584C40.2935 33.4835 38.6198 34.2545 36.726 34.8712C33.8861 35.775 30.5297 36.227 26.657 36.227H24.5379L0 0L37.7052 56H58.2311L41.7472 32.5584C42.4736 32.0962 43.145 31.5954 43.7614 31.0562C45.6332 29.4167 47.0209 27.4829 47.9246 25.2548C48.8282 23.0268 49.28 20.599 49.28 17.9716C49.28 15.176 48.8174 12.6642 47.8923 10.4361C46.9887 8.20808 45.6009 6.32684 43.7291 4.79243C41.8573 3.23699 39.5015 2.04939 36.6615 1.22964C33.8215 0.409878 30.4652 0 26.5925 0Z" fill="#FEB000"></path>
    <path d="M18.8526 0H0L24.5379 36.227H26.657C30.5297 36.227 33.8861 35.775 36.726 34.8712C38.6198 34.2545 40.2935 33.4835 41.7472 32.5584L18.8526 0Z" fill="#FEB000"></path>
    <path d="M0 33.6892H22.3108L0 56V33.6892Z" fill="#FEB000"></path>
  </g>
  <path d="M87.6 39L83.22 31.05H81.99V39H76.86V17.94H85.47C87.13 17.94 88.54 18.23 89.7 18.81C90.88 19.39 91.76 20.19 92.34 21.21C92.92 22.21 93.21 23.33 93.21 24.57C93.21 25.97 92.81 27.22 92.01 28.32C91.23 29.42 90.07 30.2 88.53 30.66L93.39 39H87.6ZM81.99 27.42H85.17C86.11 27.42 86.81 27.19 87.27 26.73C87.75 26.27 87.99 25.62 87.99 24.78C87.99 23.98 87.75 23.35 87.27 22.89C86.81 22.43 86.11 22.2 85.17 22.2H81.99V27.42ZM112.96 22.26V39H107.83V36.72C107.31 37.46 106.6 38.06 105.7 38.52C104.82 38.96 103.84 39.18 102.76 39.18C101.48 39.18 100.35 38.9 99.3703 38.34C98.3903 37.76 97.6303 36.93 97.0903 35.85C96.5503 34.77 96.2803 33.5 96.2803 32.04V22.26H101.38V31.35C101.38 32.47 101.67 33.34 102.25 33.96C102.83 34.58 103.61 34.89 104.59 34.89C105.59 34.89 106.38 34.58 106.96 33.96C107.54 33.34 107.83 32.47 107.83 31.35V22.26H112.96ZM121.445 34.77H128.705V39H115.715V34.92L122.675 26.49H115.775V22.26H128.555V26.34L121.445 34.77ZM130.508 30.6C130.508 28.88 130.828 27.37 131.468 26.07C132.128 24.77 133.018 23.77 134.138 23.07C135.258 22.37 136.508 22.02 137.888 22.02C139.068 22.02 140.098 22.26 140.978 22.74C141.878 23.22 142.568 23.85 143.048 24.63V22.26H148.178V39H143.048V36.63C142.548 37.41 141.848 38.04 140.948 38.52C140.068 39 139.038 39.24 137.858 39.24C136.498 39.24 135.258 38.89 134.138 38.19C133.018 37.47 132.128 36.46 131.468 35.16C130.828 33.84 130.508 32.32 130.508 30.6ZM143.048 30.63C143.048 29.35 142.688 28.34 141.968 27.6C141.268 26.86 140.408 26.49 139.388 26.49C138.368 26.49 137.498 26.86 136.778 27.6C136.078 28.32 135.728 29.32 135.728 30.6C135.728 31.88 136.078 32.9 136.778 33.66C137.498 34.4 138.368 34.77 139.388 34.77C140.408 34.77 141.268 34.4 141.968 33.66C142.688 32.92 143.048 31.91 143.048 30.63Z" fill="#3A454F"></path>
  <defs>
    <clipPath id="clip0_10808_18984">
      <rect width="59" height="56" fill="white"></rect>
    </clipPath>
  </defs>
</svg>
